<svg width="30" height="20" viewBox="0 0 30 20" fill="none" xmlns="http://www.w3.org/2000/svg">
<g clip-path="url(#clip0_49199_1580)">
<g clip-path="url(#clip1_49199_1580)">
<path d="M0 0H30V20.0002H0V0Z" fill="white"/>
<path d="M16.875 0H13.125V8.12497H0V11.875H13.125V19.9999H16.875V11.875H30V8.12497H16.875V0Z" fill="#D80027"/>
<path d="M23.0732 13.478L29.9999 17.3262V13.478H23.0732ZM18.2607 13.478L29.9999 19.9998V18.1556L21.5804 13.478H18.2607ZM26.873 19.9998L18.2607 15.2147V19.9998H26.873Z" fill="#0052B4"/>
<path d="M18.2607 13.478L29.9999 19.9998V18.1556L21.5804 13.478H18.2607Z" fill="white"/>
<path d="M18.2607 13.478L29.9999 19.9998V18.1556L21.5804 13.478H18.2607Z" fill="#D80027"/>
<path d="M5.29342 13.478L0 16.4189V13.478H5.29342ZM11.7391 14.3074V19.9998H1.49361L11.7391 14.3074Z" fill="#0052B4"/>
<path d="M8.41951 13.478L0 18.1556V19.9998L11.7391 13.478H8.41951Z" fill="#D80027"/>
<path d="M6.92666 6.52173L0 2.67352V6.52173H6.92666ZM11.7391 6.52173L0 0V1.84418L8.41951 6.52173H11.7391ZM3.12691 0L11.7391 4.78501V0H3.12691Z" fill="#0052B4"/>
<path d="M11.7391 6.52173L0 0V1.84418L8.41951 6.52173H11.7391Z" fill="white"/>
<path d="M11.7391 6.52173L0 0V1.84418L8.41951 6.52173H11.7391Z" fill="#D80027"/>
<path d="M24.7065 6.52179L29.9999 3.58096V6.52179H24.7065ZM18.2607 5.69245V0H28.5063L18.2607 5.69245Z" fill="#0052B4"/>
<path d="M21.5804 6.52173L29.9999 1.84418V0L18.2607 6.52173H21.5804Z" fill="#D80027"/>
</g>
</g>
<defs>
<clipPath id="clip0_49199_1580">
<rect width="30" height="20" rx="2" fill="white"/>
</clipPath>
<clipPath id="clip1_49199_1580">
<rect width="30" height="20" fill="white"/>
</clipPath>
</defs>
</svg>
