<svg width="48" height="48" viewBox="0 0 48 48" fill="none" xmlns="http://www.w3.org/2000/svg">
<path d="M23.4327 10.0548L23.4247 10.0735L23.4172 10.0925C23.4089 10.1138 23.3964 10.1288 23.3786 10.1406C23.3603 10.1528 23.3282 10.1667 23.2782 10.1667H12.2382C12.198 10.1667 12.1502 10.1479 12.1164 10.1138C11.3794 9.29539 11.4119 8.05199 12.181 7.28282L15.021 4.44282C15.8203 3.64352 17.1561 3.64352 17.9554 4.44282L23.3954 9.88282C23.4117 9.89911 23.4303 9.9289 23.4383 9.969C23.446 10.0077 23.4403 10.037 23.4327 10.0548ZM12.0049 8.50001V9.83334H13.3382H19.6782H22.913L20.6178 7.55395L17.721 4.6772C17.7203 4.67644 17.7195 4.67569 17.7188 4.67494C17.0379 3.9965 15.9354 3.99726 15.2554 4.6772L16.1982 5.62001L15.2554 4.6772L12.4154 7.5172L12.0249 7.90773V8.26759C12.0218 8.28542 12.0191 8.30324 12.0167 8.32104C12.0085 8.38314 12.0049 8.44302 12.0049 8.50001Z" fill="#A1C038" stroke="#A1C038" stroke-width="2.66667"/>
<path d="M24.5612 10.0925L24.5537 10.0735L24.5457 10.0548C24.5371 10.0346 24.5332 10.0108 24.5397 9.9787C24.5462 9.94616 24.5639 9.90588 24.5984 9.86744L30.023 4.44282C30.8223 3.64352 32.1581 3.64352 32.9574 4.44282L35.7974 7.28282C36.0845 7.56991 36.27 7.91954 36.3528 8.28699L35.623 7.55719L35.583 7.5172L32.743 4.6772C32.0623 3.9965 30.9581 3.9965 30.2774 4.6772L27.3974 7.5572L25.1212 9.83334H28.3402H34.6802H36.0799C36.0172 9.93046 35.9453 10.0236 35.8643 10.1115C35.8304 10.147 35.7813 10.1667 35.7402 10.1667H24.7002C24.6659 10.1667 24.6304 10.1559 24.602 10.1371C24.5748 10.1192 24.5648 10.1016 24.5612 10.0925Z" fill="#A1C038" stroke="#A1C038" stroke-width="2.66667"/>
<path d="M19.8828 33.8C19.3228 33.8 18.7428 33.66 18.2228 33.38C17.0828 32.76 16.3828 31.58 16.3828 30.3V20C16.3828 19.18 17.0628 18.5 17.8828 18.5H29.9628C30.7828 18.5 31.4628 19.18 31.4628 20V30.26C31.4628 31.56 30.7628 32.74 29.6228 33.34C28.4828 33.96 27.1028 33.88 26.0228 33.16L24.2428 31.96C24.0828 31.84 23.8628 31.84 23.6828 31.96L21.8028 33.2C21.2228 33.6 20.5428 33.8 19.8828 33.8ZM19.3828 21.5V30.28C19.3828 30.54 19.5428 30.66 19.6428 30.72C19.7428 30.78 19.9428 30.84 20.1628 30.7L22.0428 29.46C23.2228 28.68 24.7428 28.68 25.9028 29.46L27.6828 30.66C27.9028 30.8 28.1028 30.74 28.2028 30.68C28.3028 30.62 28.4628 30.5 28.4628 30.24V21.48H19.3828V21.5Z" fill="#A1C038"/>
<path d="M9.4375 20.1667H8.10417V21.5V36C8.10417 38.5809 8.40897 40.7271 9.80969 42.1278C11.2104 43.5285 13.3566 43.8333 15.9375 43.8333H31.9375C34.5184 43.8333 36.6646 43.5285 38.0653 42.1278C39.466 40.7271 39.7708 38.5809 39.7708 36V21.5V20.1667H38.4375H9.4375ZM31.9375 44.1667H15.9375C12.6399 44.1667 10.7091 43.516 9.56531 42.3722C8.42153 41.2284 7.77083 39.2976 7.77083 36V20C7.77083 19.9652 7.7847 19.9234 7.82281 19.8853C7.86092 19.8472 7.90266 19.8333 7.9375 19.8333H39.9375C39.9723 19.8333 40.0141 19.8472 40.0522 19.8853C40.0903 19.9234 40.1042 19.9652 40.1042 20V36C40.1042 39.2976 39.4535 41.2284 38.3097 42.3722C37.1659 43.516 35.2351 44.1667 31.9375 44.1667Z" fill="#074C31" stroke="#074C31" stroke-width="2.66667"/>
<path d="M39 20.1667H9C7.50077 20.1667 6.50338 19.7428 5.88031 19.1197C5.25724 18.4966 4.83333 17.4992 4.83333 16V14C4.83333 12.5008 5.25724 11.5034 5.88031 10.8803C6.50338 10.2572 7.50077 9.83333 9 9.83333H39C40.4228 9.83333 41.4316 10.2672 42.0822 10.9178C42.7328 11.5684 43.1667 12.5772 43.1667 14V16C43.1667 17.4228 42.7328 18.4316 42.0822 19.0822C41.4316 19.7328 40.4228 20.1667 39 20.1667ZM9 10.1667C7.98042 10.1667 6.90368 10.3457 6.12469 11.1247C5.3457 11.9037 5.16667 12.9804 5.16667 14V16C5.16667 17.0196 5.3457 18.0963 6.12469 18.8753C6.90368 19.6543 7.98042 19.8333 9 19.8333H39C40.0278 19.8333 41.0825 19.6232 41.8528 18.8528C42.6232 18.0825 42.8333 17.0278 42.8333 16V14C42.8333 12.9722 42.6232 11.9175 41.8528 11.1472C41.0825 10.3768 40.0278 10.1667 39 10.1667H9Z" fill="#074C31" stroke="#074C31" stroke-width="2.66667"/>
</svg>
