<svg width="80" height="80" viewBox="0 0 80 80" fill="none" xmlns="http://www.w3.org/2000/svg">
<path d="M75.7899 35.3981C75.7899 46.773 66.5184 55.9941 55.0814 55.9941C43.6445 55.9941 34.373 46.773 34.373 35.3981C34.373 24.0233 43.6445 14.8022 55.0814 14.8022C66.5184 14.8022 75.7899 24.0233 75.7899 35.3981Z" fill="url(#paint0_linear_6284_235685)"/>
<path d="M64.1745 49.6514C64.3568 48.6176 64.4518 47.5541 64.4518 46.4687C64.4518 36.3143 56.1352 28.0825 45.8761 28.0825C38.2494 28.0825 31.6961 32.6319 28.8353 39.1386C26.5177 37.1581 23.5104 35.9623 20.224 35.9623C12.8961 35.9623 6.95563 41.9075 6.95563 49.2412C6.95563 49.6496 6.97405 50.0536 7.01011 50.4526C3.48551 52.1614 1.05859 55.7469 1.05859 59.8935C1.05859 65.696 5.81094 70.3999 11.6732 70.3999H61.7981C67.6605 70.3999 72.4128 65.696 72.4128 59.8935C72.4128 54.8996 68.8927 50.7195 64.1745 49.6514Z" fill="url(#paint1_linear_6284_235685)"/>
<defs>
<linearGradient id="paint0_linear_6284_235685" x1="51.9359" y1="46.6086" x2="68.8347" y2="16.8086" gradientUnits="userSpaceOnUse">
<stop stop-color="#FF9900"/>
<stop offset="1" stop-color="#FFEE94"/>
</linearGradient>
<linearGradient id="paint1_linear_6284_235685" x1="5.59702" y1="66.6215" x2="77.5311" y2="12.7758" gradientUnits="userSpaceOnUse">
<stop stop-color="white"/>
<stop offset="1" stop-color="white" stop-opacity="0.58"/>
</linearGradient>
</defs>
</svg>
