<svg width="25" height="24" viewBox="0 0 25 24" fill="none" xmlns="http://www.w3.org/2000/svg">
<path d="M19.6653 5.00013L19.6644 4.99959L14.8277 2.1416C14.8272 2.14125 14.8266 2.1409 14.826 2.14055C13.5015 1.34456 11.8808 1.28191 10.5096 1.95259L10.449 1.89193L10.115 2.08998L5.27498 4.95998L5.27474 4.96013C3.83827 5.81303 2.96001 7.38919 2.96001 9.09005V14.8301C2.96001 16.5332 3.84012 18.0977 5.28374 18.9594L5.28537 18.9604L10.1347 21.83C11.5727 22.6838 13.3578 22.6828 14.8038 21.8308L14.804 21.8307L19.654 18.9707L19.6553 18.97C21.0893 18.1186 21.98 16.5439 21.98 14.8501V9.12005C21.98 7.41789 21.1007 5.85238 19.6653 5.00013Z" fill="#A1C038" stroke="#A1C038"/>
<path d="M10.42 21.42C11.7 22.18 13.29 22.18 14.57 21.42L18.79 18.91C17.53 16.68 15.18 15.17 12.48 15.17C9.78001 15.17 7.43001 16.67 6.17001 18.9L10.39 21.4L10.42 21.42Z" fill="#074C31"/>
<path d="M12.5 6.99988C11.7044 6.99988 10.9413 7.31595 10.3787 7.87856C9.81612 8.44117 9.50005 9.20423 9.50005 9.99988C9.50005 10.7955 9.81612 11.5586 10.3787 12.1212C10.9413 12.6838 11.7044 12.9999 12.5 12.9999C13.2957 12.9999 14.0588 12.6838 14.6214 12.1212C15.184 11.5586 15.5 10.7955 15.5 9.99988C15.5 9.20423 15.184 8.44117 14.6214 7.87856C14.0588 7.31595 13.2957 6.99988 12.5 6.99988Z" fill="#074C31"/>
</svg>
