<svg width="25" height="24" viewBox="0 0 25 24" fill="none" xmlns="http://www.w3.org/2000/svg">
<path d="M21.59 6.98002C20.74 6.04002 19.32 5.57002 17.26 5.57002H17.02V5.53002C17.02 3.85002 17.02 1.77002 13.26 1.77002H11.74C7.98001 1.77002 7.98001 3.86002 7.98001 5.53002V5.58002H7.74001C5.67001 5.58002 4.26001 6.05002 3.41001 6.99002C2.42001 8.09002 2.45001 9.57002 2.55001 10.58L2.56001 10.65L2.63746 11.4633C2.65173 11.6131 2.73239 11.7484 2.85828 11.8307C3.09809 11.9877 3.49943 12.2464 3.74001 12.38C3.88001 12.47 4.03001 12.55 4.18001 12.63C5.89001 13.57 7.77001 14.2 9.68001 14.51C9.77001 15.45 10.18 16.55 12.37 16.55C14.56 16.55 14.99 15.46 15.06 14.49C17.1 14.16 19.07 13.45 20.85 12.41C20.91 12.38 20.95 12.35 21 12.32C21.3967 12.0958 21.8083 11.8195 22.1835 11.5489C22.2965 11.4673 22.3688 11.3413 22.3841 11.2028L22.4 11.06L22.45 10.59C22.46 10.53 22.46 10.48 22.47 10.41C22.55 9.40002 22.53 8.02002 21.59 6.98002ZM13.59 13.83C13.59 14.89 13.59 15.05 12.36 15.05C11.13 15.05 11.13 14.86 11.13 13.84V12.58H13.59V13.83ZM9.41001 5.57002V5.53002C9.41001 3.83002 9.41001 3.20002 11.74 3.20002H13.26C15.59 3.20002 15.59 3.84002 15.59 5.53002V5.58002H9.41001V5.57002Z" fill="#A1C038"/>
<path d="M21.3735 13.7342C21.7271 13.5659 22.1343 13.8462 22.0989 14.2362L21.74 18.19C21.53 20.19 20.71 22.23 16.31 22.23H8.69C4.29 22.23 3.47 20.19 3.26 18.2L2.91928 14.4522C2.88424 14.0667 3.2822 13.7868 3.63484 13.9463C4.77425 14.4618 6.87739 15.3764 8.17657 15.7167C8.34088 15.7597 8.47377 15.8773 8.54571 16.0312C9.15268 17.3293 10.4691 18.02 12.37 18.02C14.2521 18.02 15.5852 17.3027 16.1941 16.0014C16.2662 15.8474 16.3992 15.7299 16.5636 15.6866C17.9432 15.3236 20.1818 14.3013 21.3735 13.7342Z" fill="#074C31"/>
</svg>
