<svg width="25" height="24" viewBox="0 0 25 24" fill="none" xmlns="http://www.w3.org/2000/svg">
<path d="M10.42 2.57005C11.7 1.80005 13.29 1.80005 14.57 2.57005L19.41 5.43005C20.69 6.19005 21.48 7.59005 21.48 9.12005V14.8501C21.48 16.3701 20.68 17.7801 19.4 18.5401L14.55 21.4001C13.26 22.1601 11.67 22.1601 10.39 21.4001L5.54001 18.5301C4.25001 17.7601 3.46001 16.3601 3.46001 14.8301V9.09005C3.46001 7.56005 4.25001 6.15005 5.53001 5.39005L10.37 2.52005L10.42 2.57005Z" fill="#CBAA7A"/>
<path d="M10.42 21.42C11.7 22.18 13.29 22.18 14.57 21.42L18.79 18.91C17.53 16.68 15.18 15.17 12.48 15.17C9.78001 15.17 7.43001 16.67 6.17001 18.9L10.39 21.4L10.42 21.42Z" fill="#553716"/>
<path d="M12.5 6.99988C11.7044 6.99988 10.9413 7.31595 10.3787 7.87856C9.81612 8.44117 9.50005 9.20423 9.50005 9.99988C9.50005 10.7955 9.81612 11.5586 10.3787 12.1212C10.9413 12.6838 11.7044 12.9999 12.5 12.9999C13.2957 12.9999 14.0588 12.6838 14.6214 12.1212C15.184 11.5586 15.5 10.7955 15.5 9.99988C15.5 9.20423 15.184 8.44117 14.6214 7.87856C14.0588 7.31595 13.2957 6.99988 12.5 6.99988Z" fill="#553716"/>
</svg>
