<svg width="24" height="24" viewBox="0 0 24 24" fill="none" xmlns="http://www.w3.org/2000/svg">
<path d="M22 19V21C22 21.5523 21.5523 22 21 22H3C2.44772 22 2 21.5523 2 21V19C2 18.45 2.45 18 3 18H21C21.55 18 22 18.45 22 19Z" fill="#074C31"/>
<path d="M7 11H4V18H7V11Z" fill="#A1C038"/>
<path d="M13.5 11H10.5V18H13.5V11Z" fill="#A1C038"/>
<path d="M20 11H17V18H20V11Z" fill="#A1C038"/>
<path d="M21.37 5.74982L12.37 2.14984C12.17 2.06984 11.83 2.06984 11.63 2.14984L2.63 5.74982C2.28 5.88982 2 6.29981 2 6.67981V9.99982C2 10.5498 2.45 10.9998 3 10.9998H21C21.55 10.9998 22 10.5498 22 9.99982V6.67981C22 6.29981 21.72 5.88982 21.37 5.74982ZM12 8.49982C11.17 8.49982 10.5 7.82982 10.5 6.99982C10.5 6.16982 11.17 5.49982 12 5.49982C12.83 5.49982 13.5 6.16982 13.5 6.99982C13.5 7.82982 12.83 8.49982 12 8.49982Z" fill="#074C31"/>
</svg>
